<?xml version="1.0" encoding="utf-8"?>
<!-- Generator: Adobe Illustrator 24.0.1, SVG Export Plug-In . SVG Version: 6.00 Build 0)  -->
<svg version="1.1" id="Layer_1" xmlns="http://www.w3.org/2000/svg" xmlns:xlink="http://www.w3.org/1999/xlink" x="0px" y="0px"
	 viewBox="0 0 583.88 171.18" style="enable-background:new 0 0 583.88 171.18;" xml:space="preserve">
<style type="text/css">
	.st0{fill:#2B2524;}
	.st1{fill:#FEE292;}
	.st2{fill-rule:evenodd;clip-rule:evenodd;fill:#E01F26;}
	.st3{fill-rule:evenodd;clip-rule:evenodd;fill:#2B2524;}
	.st4{fill:#050606;}
	.st5{fill-rule:evenodd;clip-rule:evenodd;fill:#050606;}
	.st6{fill:none;stroke:#000000;stroke-miterlimit:10;}
</style>
<g>
	<path class="st0" d="M25,157.76v-4.37h0.8c0.31,0,0.54,0.02,0.69,0.05c0.15,0.04,0.28,0.09,0.39,0.17c0.14,0.1,0.24,0.24,0.32,0.41
		c0.08,0.17,0.12,0.36,0.12,0.58c0,0.42-0.12,0.72-0.35,0.91c-0.23,0.2-0.6,0.29-1.11,0.29h-0.46v1.96H25z M25.39,155.45h0.27
		c0.48,0,0.8-0.06,0.97-0.18c0.17-0.12,0.24-0.34,0.24-0.64c0-0.13-0.02-0.25-0.05-0.36c-0.04-0.11-0.1-0.21-0.17-0.29
		c-0.08-0.09-0.18-0.15-0.32-0.19c-0.13-0.03-0.36-0.05-0.68-0.05h-0.27V155.45z"/>
	<path class="st0" d="M28.65,157.77l1.92-4.55l1.84,4.55h-0.43l-0.56-1.48h-1.79l-0.58,1.48H28.65z M29.77,155.94h1.52l-0.74-1.9
		L29.77,155.94z"/>
	<path class="st0" d="M34.09,157.03l0.34-0.18c0.07,0.22,0.17,0.38,0.33,0.5c0.16,0.12,0.34,0.18,0.56,0.18
		c0.28,0,0.49-0.08,0.65-0.25c0.16-0.16,0.23-0.39,0.23-0.68c0-0.21-0.05-0.38-0.16-0.53c-0.11-0.14-0.33-0.3-0.67-0.48
		c-0.44-0.23-0.73-0.44-0.87-0.61c-0.15-0.18-0.22-0.39-0.22-0.64c0-0.31,0.11-0.56,0.31-0.76c0.21-0.2,0.48-0.29,0.82-0.29
		c0.22,0,0.41,0.04,0.57,0.14c0.16,0.09,0.29,0.23,0.4,0.41l-0.31,0.19c-0.07-0.12-0.15-0.22-0.27-0.29
		c-0.11-0.07-0.26-0.1-0.41-0.1c-0.21,0-0.39,0.06-0.52,0.19c-0.13,0.12-0.19,0.3-0.19,0.51c0,0.31,0.25,0.59,0.76,0.86
		c0.09,0.05,0.16,0.09,0.21,0.11c0.37,0.2,0.62,0.4,0.74,0.58c0.13,0.18,0.19,0.42,0.19,0.71c0,0.39-0.12,0.7-0.35,0.93
		c-0.23,0.23-0.54,0.34-0.93,0.34c-0.28,0-0.53-0.07-0.74-0.21C34.37,157.53,34.21,157.31,34.09,157.03"/>
	<path class="st0" d="M38.67,157.03l0.34-0.18c0.06,0.22,0.17,0.38,0.33,0.5c0.16,0.12,0.34,0.18,0.56,0.18
		c0.28,0,0.49-0.08,0.65-0.25c0.15-0.16,0.23-0.39,0.23-0.68c0-0.21-0.05-0.38-0.16-0.53c-0.1-0.14-0.33-0.3-0.67-0.48
		c-0.44-0.23-0.73-0.44-0.88-0.61c-0.15-0.18-0.22-0.39-0.22-0.64c0-0.31,0.1-0.56,0.31-0.76c0.21-0.2,0.48-0.29,0.82-0.29
		c0.22,0,0.41,0.04,0.57,0.14c0.16,0.09,0.29,0.23,0.4,0.41l-0.31,0.19c-0.06-0.12-0.15-0.22-0.27-0.29
		c-0.11-0.07-0.26-0.1-0.41-0.1c-0.21,0-0.38,0.06-0.51,0.19c-0.13,0.12-0.19,0.3-0.19,0.51c0,0.31,0.25,0.59,0.76,0.86
		c0.09,0.05,0.16,0.09,0.21,0.11c0.37,0.2,0.62,0.4,0.74,0.58c0.13,0.18,0.19,0.42,0.19,0.71c0,0.39-0.11,0.7-0.34,0.93
		c-0.23,0.23-0.54,0.34-0.94,0.34c-0.29,0-0.53-0.07-0.74-0.21C38.94,157.53,38.78,157.31,38.67,157.03"/>
	<rect x="43.58" y="153.39" class="st0" width="0.4" height="4.37"/>
	<path class="st0" d="M51.07,155.59c0,0.31-0.06,0.6-0.18,0.88c-0.11,0.28-0.28,0.53-0.51,0.74c-0.23,0.22-0.48,0.38-0.76,0.5
		c-0.28,0.12-0.58,0.17-0.9,0.17c-0.32,0-0.62-0.06-0.9-0.17c-0.28-0.11-0.53-0.28-0.75-0.5c-0.23-0.22-0.39-0.47-0.51-0.75
		c-0.12-0.27-0.18-0.57-0.18-0.88c0-0.31,0.06-0.61,0.18-0.89c0.12-0.28,0.29-0.53,0.51-0.75c0.22-0.22,0.46-0.38,0.75-0.49
		c0.28-0.11,0.58-0.17,0.9-0.17c0.32,0,0.63,0.06,0.91,0.17c0.28,0.11,0.53,0.28,0.75,0.49c0.23,0.22,0.39,0.47,0.51,0.75
		C51.01,154.98,51.07,155.27,51.07,155.59 M48.72,157.53c0.26,0,0.5-0.05,0.74-0.14c0.23-0.1,0.44-0.23,0.62-0.42
		c0.18-0.19,0.32-0.4,0.41-0.63c0.1-0.24,0.15-0.49,0.15-0.75c0-0.26-0.05-0.51-0.14-0.75c-0.1-0.23-0.24-0.44-0.42-0.63
		c-0.18-0.18-0.39-0.32-0.62-0.42c-0.23-0.09-0.48-0.14-0.74-0.14c-0.26,0-0.5,0.05-0.73,0.14c-0.23,0.1-0.44,0.24-0.62,0.42
		c-0.18,0.19-0.32,0.4-0.42,0.63c-0.1,0.23-0.14,0.48-0.14,0.75c0,0.26,0.05,0.51,0.14,0.75c0.1,0.23,0.23,0.44,0.42,0.63
		c0.18,0.18,0.39,0.32,0.61,0.42C48.21,157.48,48.46,157.53,48.72,157.53"/>
	<polygon class="st0" points="53.47,157.76 53.47,153.2 56.57,156.87 56.57,153.39 56.94,153.39 56.94,157.89 53.84,154.23 
		53.84,157.76 	"/>
	<path class="st0" d="M62.26,157.77l1.92-4.55l1.84,4.55h-0.43l-0.56-1.48h-1.79l-0.58,1.48H62.26z M63.37,155.94h1.52l-0.74-1.9
		L63.37,155.94z"/>
	<polygon class="st0" points="68.47,157.76 68.47,153.76 67.27,153.76 67.27,153.39 70.08,153.39 70.08,153.76 68.87,153.76 
		68.87,157.76 	"/>
	<polygon class="st0" points="76.6,157.93 75.09,153.39 75.51,153.39 76.6,156.88 77.76,153.22 78.97,156.86 80.02,153.39 
		80.43,153.39 78.97,157.93 77.76,154.22 	"/>
	<path class="st0" d="M87.05,155.59c0,0.31-0.06,0.6-0.18,0.88c-0.12,0.28-0.29,0.53-0.51,0.74c-0.23,0.22-0.48,0.38-0.76,0.5
		c-0.29,0.12-0.58,0.17-0.9,0.17c-0.32,0-0.61-0.06-0.89-0.17c-0.29-0.11-0.54-0.28-0.76-0.5c-0.22-0.22-0.4-0.47-0.51-0.75
		c-0.12-0.27-0.17-0.57-0.17-0.88c0-0.31,0.06-0.61,0.17-0.89c0.12-0.28,0.29-0.53,0.51-0.75c0.22-0.22,0.47-0.38,0.75-0.49
		c0.28-0.11,0.58-0.17,0.9-0.17c0.32,0,0.62,0.06,0.91,0.17c0.28,0.11,0.53,0.28,0.75,0.49c0.22,0.22,0.39,0.47,0.51,0.75
		C86.99,154.98,87.05,155.27,87.05,155.59 M84.71,157.53c0.26,0,0.5-0.05,0.73-0.14c0.23-0.1,0.44-0.23,0.62-0.42
		c0.18-0.19,0.32-0.4,0.42-0.63c0.1-0.24,0.15-0.49,0.15-0.75c0-0.26-0.05-0.51-0.14-0.75c-0.1-0.23-0.23-0.44-0.42-0.63
		c-0.18-0.18-0.39-0.32-0.62-0.42c-0.23-0.09-0.48-0.14-0.74-0.14c-0.26,0-0.5,0.05-0.73,0.14c-0.23,0.1-0.44,0.24-0.62,0.42
		c-0.18,0.19-0.33,0.4-0.42,0.63c-0.1,0.23-0.14,0.48-0.14,0.75c0,0.26,0.05,0.51,0.14,0.75c0.1,0.23,0.24,0.44,0.42,0.63
		c0.18,0.18,0.39,0.32,0.61,0.42C84.2,157.48,84.44,157.53,84.71,157.53"/>
	<path class="st0" d="M92.11,157.76h-0.49l-1.53-2.08h-0.24v2.08h-0.4v-4.37h0.8c0.47,0,0.83,0.1,1.06,0.29
		c0.24,0.2,0.35,0.5,0.35,0.9c0,0.34-0.1,0.61-0.3,0.8c-0.2,0.2-0.48,0.29-0.84,0.29L92.11,157.76z M89.85,153.74v1.62h0.4
		c0.37,0,0.63-0.06,0.78-0.18c0.14-0.12,0.22-0.32,0.22-0.6c0-0.3-0.07-0.52-0.22-0.64c-0.15-0.13-0.41-0.19-0.77-0.19H89.85z"/>
	<polygon class="st0" points="94.21,157.76 94.21,153.39 94.61,153.39 94.61,155.44 96.59,153.39 97.11,153.39 95.03,155.48 
		97.21,157.76 96.63,157.76 94.61,155.54 94.61,157.76 	"/>
	<rect x="25" y="13.24" class="st1" width="72.21" height="134.55"/>
	<path class="st2" d="M48.49,47.82c0,0.52-0.43,0.94-0.96,0.94c-0.53,0-0.95-0.42-0.95-0.94c0-0.52,0.42-0.95,0.95-0.95
		C48.06,46.87,48.49,47.3,48.49,47.82"/>
	<path class="st3" d="M43.6,82.27c0.88,0,1.6-0.71,1.6-1.58c0-0.86-0.72-1.57-1.6-1.57c-0.88,0-1.6,0.7-1.6,1.57
		C41.99,81.56,42.71,82.27,43.6,82.27 M43.6,78.91c0.85,0,1.54-0.67,1.54-1.5c0-0.84-0.68-1.5-1.54-1.5c-0.85,0-1.53,0.67-1.53,1.5
		C42.06,78.24,42.75,78.91,43.6,78.91 M43.6,75.56c0.81,0,1.47-0.65,1.47-1.44c0-0.8-0.66-1.44-1.47-1.44
		c-0.81,0-1.47,0.64-1.47,1.44C42.13,74.92,42.79,75.56,43.6,75.56 M43.6,72.21c0.77,0,1.4-0.61,1.4-1.38c0-0.75-0.63-1.37-1.4-1.37
		c-0.77,0-1.39,0.61-1.39,1.37C42.2,71.6,42.83,72.21,43.6,72.21 M43.6,68.86c0.74,0,1.32-0.57,1.32-1.3c0-0.72-0.59-1.3-1.32-1.3
		c-0.73,0-1.32,0.58-1.32,1.3C42.28,68.28,42.87,68.86,43.6,68.86 M43.6,65.51c0.7,0,1.26-0.55,1.26-1.23
		c0-0.68-0.56-1.24-1.26-1.24c-0.7,0-1.26,0.55-1.26,1.24C42.34,64.96,42.9,65.51,43.6,65.51 M43.6,62.16c0.66,0,1.2-0.52,1.2-1.17
		c0-0.64-0.54-1.16-1.2-1.16c-0.66,0-1.19,0.52-1.19,1.16C42.41,61.64,42.94,62.16,43.6,62.16 M43.6,58.81
		c0.62,0,1.13-0.49,1.13-1.1c0-0.61-0.5-1.1-1.13-1.1c-0.62,0-1.13,0.5-1.13,1.1C42.47,58.32,42.98,58.81,43.6,58.81 M48.4,95.43
		c0.57-0.31,0.96-0.92,0.96-1.61c0-0.75-0.46-1.4-1.12-1.68c0.62-0.28,1.05-0.89,1.05-1.6c0-0.78-0.52-1.45-1.24-1.68
		c0.68-0.23,1.17-0.86,1.17-1.6c0-0.84-0.62-1.53-1.43-1.68c0.78-0.15,1.36-0.81,1.36-1.61c0-0.9-0.75-1.63-1.67-1.63
		c-0.92,0-1.67,0.73-1.67,1.63c0,0.81,0.59,1.47,1.36,1.61c-0.81,0.14-1.43,0.84-1.43,1.68c0,0.74,0.49,1.37,1.17,1.6
		c-0.72,0.23-1.23,0.9-1.23,1.68c0,0.71,0.43,1.32,1.05,1.6c-0.66,0.29-1.12,0.93-1.12,1.68c0,0.69,0.39,1.29,0.96,1.61
		c-0.61,0.32-1.02,0.95-1.02,1.68c0,1.05,0.86,1.9,1.94,1.9c1.07,0,1.94-0.86,1.94-1.9C49.43,96.38,49.02,95.75,48.4,95.43
		 M47.49,82.27c0.88,0,1.61-0.71,1.61-1.58c0-0.86-0.72-1.57-1.61-1.57c-0.89,0-1.6,0.7-1.6,1.57
		C45.89,81.56,46.6,82.27,47.49,82.27 M47.49,78.91c0.85,0,1.53-0.67,1.53-1.5c0-0.84-0.69-1.5-1.53-1.5c-0.85,0-1.53,0.67-1.53,1.5
		C45.95,78.24,46.64,78.91,47.49,78.91 M47.49,75.56c0.81,0,1.47-0.65,1.47-1.44c0-0.8-0.65-1.44-1.47-1.44
		c-0.8,0-1.46,0.64-1.46,1.44C46.02,74.92,46.68,75.56,47.49,75.56 M47.49,72.21c0.77,0,1.4-0.61,1.4-1.38
		c0-0.75-0.63-1.37-1.4-1.37c-0.77,0-1.4,0.61-1.4,1.37C46.09,71.6,46.71,72.21,47.49,72.21 M47.49,68.86c0.74,0,1.33-0.57,1.33-1.3
		c0-0.72-0.59-1.3-1.33-1.3c-0.74,0-1.33,0.58-1.33,1.3C46.16,68.28,46.75,68.86,47.49,68.86 M47.49,65.51
		c0.7,0,1.26-0.55,1.26-1.23c0-0.68-0.57-1.24-1.26-1.24c-0.7,0-1.26,0.55-1.26,1.24C46.23,64.96,46.79,65.51,47.49,65.51
		 M47.49,62.16c0.66,0,1.2-0.52,1.2-1.17c0-0.64-0.54-1.16-1.2-1.16c-0.65,0-1.19,0.52-1.19,1.16
		C46.29,61.64,46.83,62.16,47.49,62.16 M47.49,58.81c0.62,0,1.13-0.49,1.13-1.1c0-0.61-0.51-1.1-1.13-1.1c-0.62,0-1.12,0.5-1.12,1.1
		C46.36,58.32,46.87,58.81,47.49,58.81 M47.49,55.46c0.58,0,1.06-0.46,1.06-1.04c0-0.57-0.48-1.03-1.06-1.03
		c-0.58,0-1.06,0.46-1.06,1.03C46.43,55,46.91,55.46,47.49,55.46 M47.49,52.12c0.55,0,0.99-0.44,0.99-0.98
		c0-0.53-0.44-0.96-0.99-0.96c-0.54,0-0.99,0.44-0.99,0.96C46.5,51.68,46.95,52.12,47.49,52.12 M52.29,95.43
		c0.57-0.32,0.96-0.92,0.96-1.6c0-0.75-0.46-1.4-1.12-1.68c0.62-0.28,1.05-0.89,1.05-1.6c0-0.78-0.52-1.45-1.23-1.68
		c0.68-0.23,1.17-0.86,1.17-1.6c0-0.84-0.62-1.53-1.43-1.68c0.78-0.15,1.36-0.81,1.36-1.61c0-0.9-0.75-1.63-1.68-1.63
		c-0.92,0-1.67,0.73-1.67,1.63c0,0.81,0.58,1.47,1.36,1.61c-0.81,0.14-1.42,0.84-1.42,1.68c0,0.74,0.48,1.37,1.16,1.6
		c-0.72,0.23-1.24,0.9-1.24,1.68c0,0.71,0.43,1.32,1.05,1.6c-0.66,0.28-1.12,0.93-1.12,1.68c0,0.69,0.39,1.29,0.96,1.61
		c-0.61,0.32-1.03,0.95-1.03,1.68c0,1.05,0.88,1.9,1.95,1.9c1.08,0,1.95-0.86,1.95-1.9C53.32,96.38,52.91,95.75,52.29,95.43
		 M51.38,82.27c0.89,0,1.61-0.71,1.61-1.58c0-0.86-0.72-1.57-1.61-1.57c-0.88,0-1.6,0.7-1.6,1.57
		C49.77,81.56,50.49,82.27,51.38,82.27 M51.38,78.91c0.85,0,1.53-0.67,1.53-1.5c0-0.84-0.69-1.5-1.53-1.5
		c-0.85,0-1.53,0.67-1.53,1.5C49.84,78.24,50.53,78.91,51.38,78.91 M51.38,75.56c0.81,0,1.46-0.65,1.46-1.44
		c0-0.8-0.66-1.44-1.46-1.44c-0.81,0-1.46,0.64-1.46,1.44C49.91,74.92,50.56,75.56,51.38,75.56 M51.38,72.21
		c0.77,0,1.4-0.61,1.4-1.38c0-0.75-0.63-1.37-1.4-1.37c-0.77,0-1.39,0.61-1.39,1.37C49.98,71.6,50.6,72.21,51.38,72.21 M51.38,68.86
		c0.73,0,1.33-0.57,1.33-1.3c0-0.72-0.6-1.3-1.33-1.3c-0.73,0-1.33,0.58-1.33,1.3C50.05,68.28,50.65,68.86,51.38,68.86 M51.38,65.51
		c0.7,0,1.26-0.55,1.26-1.23c0-0.68-0.56-1.24-1.26-1.24s-1.26,0.55-1.26,1.24C50.12,64.96,50.68,65.51,51.38,65.51 M56.18,95.43
		c0.58-0.31,0.96-0.92,0.96-1.61c0-0.75-0.46-1.4-1.12-1.68c0.62-0.28,1.05-0.89,1.05-1.6c0-0.78-0.52-1.45-1.23-1.68
		C56.52,88.63,57,88,57,87.26c0-0.84-0.61-1.53-1.43-1.68c0.77-0.15,1.36-0.81,1.36-1.61c0-0.9-0.75-1.63-1.67-1.63
		c-0.93,0-1.67,0.73-1.67,1.63c0,0.81,0.58,1.47,1.36,1.61c-0.81,0.14-1.43,0.84-1.43,1.68c0,0.74,0.49,1.37,1.16,1.6
		c-0.71,0.23-1.23,0.9-1.23,1.68c0,0.71,0.43,1.32,1.05,1.6c-0.66,0.29-1.12,0.93-1.12,1.68c0,0.69,0.39,1.29,0.96,1.61
		c-0.61,0.32-1.03,0.95-1.03,1.68c0,1.05,0.87,1.9,1.94,1.9c1.07,0,1.95-0.86,1.95-1.9C57.21,96.38,56.79,95.75,56.18,95.43
		 M55.27,82.27c0.88,0,1.6-0.71,1.6-1.58c0-0.86-0.72-1.57-1.6-1.57c-0.89,0-1.6,0.7-1.6,1.57C53.67,81.56,54.38,82.27,55.27,82.27
		 M55.27,78.91c0.85,0,1.53-0.67,1.53-1.5c0-0.84-0.68-1.5-1.53-1.5c-0.85,0-1.54,0.67-1.54,1.5
		C53.73,78.24,54.42,78.91,55.27,78.91 M55.27,75.56c0.81,0,1.47-0.65,1.47-1.44c0-0.8-0.66-1.44-1.47-1.44
		c-0.82,0-1.46,0.64-1.46,1.44C53.8,74.92,54.45,75.56,55.27,75.56 M55.27,72.21c0.77,0,1.4-0.61,1.4-1.38
		c0-0.75-0.63-1.37-1.4-1.37c-0.77,0-1.4,0.61-1.4,1.37C53.87,71.6,54.49,72.21,55.27,72.21 M55.27,68.86c0.74,0,1.33-0.57,1.33-1.3
		c0-0.72-0.59-1.3-1.33-1.3s-1.33,0.58-1.33,1.3C53.94,68.28,54.53,68.86,55.27,68.86 M55.27,65.51c0.69,0,1.26-0.55,1.26-1.23
		c0-0.68-0.57-1.24-1.26-1.24c-0.7,0-1.26,0.55-1.26,1.24C54,64.96,54.57,65.51,55.27,65.51 M55.27,62.16
		c0.66,0,1.19-0.52,1.19-1.17c0-0.64-0.54-1.16-1.19-1.16c-0.67,0-1.2,0.52-1.2,1.16C54.07,61.64,54.6,62.16,55.27,62.16
		 M55.27,58.81c0.62,0,1.12-0.49,1.12-1.1c0-0.61-0.5-1.1-1.12-1.1c-0.63,0-1.13,0.5-1.13,1.1C54.14,58.32,54.64,58.81,55.27,58.81
		 M55.27,55.46c0.58,0,1.06-0.46,1.06-1.04c0-0.57-0.48-1.03-1.06-1.03c-0.58,0-1.06,0.46-1.06,1.03
		C54.21,55,54.68,55.46,55.27,55.46 M60.07,95.43c0.57-0.32,0.96-0.92,0.96-1.61c0-0.75-0.46-1.4-1.12-1.68
		c0.62-0.28,1.05-0.89,1.05-1.6c0-0.78-0.52-1.44-1.24-1.68c0.68-0.23,1.17-0.87,1.17-1.61c0-0.84-0.61-1.53-1.43-1.68
		c0.77-0.15,1.36-0.81,1.36-1.61c0-0.9-0.75-1.63-1.67-1.63c-0.92,0-1.67,0.73-1.67,1.63c0,0.81,0.59,1.47,1.36,1.61
		c-0.81,0.14-1.43,0.84-1.43,1.68c0,0.74,0.49,1.37,1.17,1.6c-0.72,0.23-1.23,0.9-1.23,1.68c0,0.71,0.43,1.32,1.05,1.6
		c-0.66,0.28-1.12,0.93-1.12,1.68c0,0.69,0.39,1.29,0.96,1.61c-0.61,0.32-1.03,0.95-1.03,1.68c0,1.05,0.87,1.9,1.94,1.9
		c1.08,0,1.94-0.86,1.94-1.9C61.1,96.38,60.68,95.75,60.07,95.43 M59.15,82.27c0.88,0,1.61-0.71,1.61-1.58
		c0-0.86-0.72-1.57-1.61-1.57c-0.89,0-1.61,0.7-1.61,1.57C57.55,81.56,58.27,82.27,59.15,82.27 M59.15,78.91
		c0.85,0,1.54-0.67,1.54-1.5c0-0.84-0.69-1.5-1.54-1.5c-0.85,0-1.53,0.67-1.53,1.5C57.62,78.24,58.3,78.91,59.15,78.91 M59.15,75.56
		c0.81,0,1.47-0.65,1.47-1.44c0-0.8-0.66-1.44-1.47-1.44c-0.8,0-1.46,0.64-1.46,1.44C57.69,74.92,58.35,75.56,59.15,75.56
		 M59.15,72.21c0.77,0,1.4-0.61,1.4-1.38c0-0.75-0.63-1.37-1.4-1.37s-1.39,0.61-1.39,1.37C57.76,71.6,58.38,72.21,59.15,72.21
		 M59.15,68.86c0.74,0,1.33-0.57,1.33-1.3c0-0.72-0.59-1.3-1.33-1.3c-0.73,0-1.33,0.58-1.33,1.3
		C57.83,68.28,58.42,68.86,59.15,68.86 M59.15,65.51c0.7,0,1.26-0.55,1.26-1.23c0-0.68-0.57-1.24-1.26-1.24
		c-0.69,0-1.26,0.55-1.26,1.24C57.89,64.96,58.46,65.51,59.15,65.51 M59.15,62.16c0.66,0,1.19-0.52,1.19-1.17
		c0-0.64-0.53-1.16-1.19-1.16c-0.65,0-1.19,0.52-1.19,1.16C57.96,61.64,58.5,62.16,59.15,62.16 M59.15,58.81
		c0.63,0,1.13-0.49,1.13-1.1c0-0.61-0.5-1.1-1.13-1.1c-0.62,0-1.12,0.5-1.12,1.1C58.03,58.32,58.53,58.81,59.15,58.81 M59.15,55.46
		c0.58,0,1.05-0.46,1.05-1.04c0-0.57-0.47-1.03-1.05-1.03c-0.58,0-1.06,0.46-1.06,1.03C58.09,55,58.57,55.46,59.15,55.46
		 M63.96,95.43c0.57-0.31,0.96-0.92,0.96-1.61c0-0.75-0.46-1.4-1.12-1.68c0.62-0.28,1.05-0.89,1.05-1.6c0-0.78-0.52-1.45-1.23-1.68
		c0.68-0.23,1.17-0.86,1.17-1.6c0-0.84-0.62-1.53-1.43-1.68c0.77-0.15,1.36-0.81,1.36-1.61c0-0.9-0.75-1.63-1.67-1.63
		c-0.92,0-1.67,0.73-1.67,1.63c0,0.81,0.59,1.47,1.36,1.61c-0.81,0.14-1.43,0.84-1.43,1.68c0,0.74,0.49,1.37,1.17,1.6
		c-0.71,0.23-1.24,0.9-1.24,1.68c0,0.71,0.43,1.32,1.05,1.6c-0.66,0.29-1.12,0.93-1.12,1.68c0,0.69,0.39,1.29,0.96,1.61
		c-0.62,0.32-1.03,0.95-1.03,1.68c0,1.05,0.88,1.9,1.95,1.9c1.07,0,1.94-0.86,1.94-1.9C64.98,96.38,64.57,95.75,63.96,95.43
		 M63.04,82.27c0.88,0,1.6-0.71,1.6-1.58c0-0.86-0.72-1.57-1.6-1.57c-0.89,0-1.6,0.7-1.6,1.57C61.44,81.56,62.16,82.27,63.04,82.27
		 M63.04,78.91c0.85,0,1.54-0.67,1.54-1.5c0-0.84-0.69-1.5-1.54-1.5c-0.85,0-1.53,0.67-1.53,1.5C61.51,78.24,62.2,78.91,63.04,78.91
		 M63.04,75.56c0.81,0,1.47-0.65,1.47-1.44c0-0.8-0.66-1.44-1.47-1.44c-0.81,0-1.46,0.64-1.46,1.44
		C61.58,74.92,62.23,75.56,63.04,75.56 M66.93,82.27c0.89,0,1.61-0.71,1.61-1.58c0-0.86-0.72-1.57-1.61-1.57
		c-0.88,0-1.6,0.7-1.6,1.57C65.33,81.56,66.05,82.27,66.93,82.27 M66.93,78.91c0.85,0,1.54-0.67,1.54-1.5c0-0.84-0.69-1.5-1.54-1.5
		c-0.85,0-1.53,0.67-1.53,1.5C65.4,78.24,66.08,78.91,66.93,78.91 M66.93,75.56c0.81,0,1.47-0.65,1.47-1.44
		c0-0.8-0.66-1.44-1.47-1.44c-0.81,0-1.46,0.64-1.46,1.44C65.47,74.92,66.12,75.56,66.93,75.56 M66.93,72.21
		c0.77,0,1.4-0.61,1.4-1.38c0-0.75-0.63-1.37-1.4-1.37c-0.77,0-1.4,0.61-1.4,1.37C65.53,71.6,66.16,72.21,66.93,72.21 M70.82,82.27
		c0.89,0,1.61-0.71,1.61-1.58c0-0.86-0.72-1.57-1.61-1.57c-0.88,0-1.61,0.7-1.61,1.57C69.22,81.56,69.94,82.27,70.82,82.27
		 M70.82,78.91c0.85,0,1.53-0.67,1.53-1.5c0-0.84-0.69-1.5-1.53-1.5c-0.85,0-1.54,0.67-1.54,1.5
		C69.28,78.24,69.97,78.91,70.82,78.91 M70.82,75.56c0.81,0,1.47-0.65,1.47-1.44c0-0.8-0.66-1.44-1.47-1.44s-1.47,0.64-1.47,1.44
		C69.35,74.92,70.01,75.56,70.82,75.56 M70.82,72.21c0.77,0,1.4-0.61,1.4-1.38c0-0.75-0.63-1.37-1.4-1.37s-1.4,0.61-1.4,1.37
		C69.42,71.6,70.05,72.21,70.82,72.21 M70.82,68.86c0.73,0,1.33-0.57,1.33-1.3c0-0.72-0.6-1.3-1.33-1.3c-0.73,0-1.33,0.58-1.33,1.3
		C69.49,68.28,70.09,68.86,70.82,68.86 M70.82,65.51c0.7,0,1.26-0.55,1.26-1.23c0-0.68-0.56-1.24-1.26-1.24
		c-0.7,0-1.26,0.55-1.26,1.24C69.56,64.96,70.12,65.51,70.82,65.51 M70.82,62.16c0.66,0,1.19-0.52,1.19-1.17
		c0-0.64-0.53-1.16-1.19-1.16c-0.66,0-1.19,0.52-1.19,1.16C69.63,61.64,70.16,62.16,70.82,62.16 M75.62,95.43
		c0.57-0.31,0.96-0.92,0.96-1.61c0-0.75-0.46-1.4-1.12-1.68c0.62-0.28,1.05-0.89,1.05-1.6c0-0.78-0.52-1.44-1.23-1.68
		c0.68-0.23,1.17-0.87,1.17-1.61c0-0.84-0.61-1.53-1.43-1.68c0.77-0.15,1.36-0.81,1.36-1.61c0-0.9-0.74-1.63-1.67-1.63
		c-0.92,0-1.67,0.73-1.67,1.63c0,0.81,0.59,1.47,1.36,1.61c-0.81,0.14-1.42,0.84-1.42,1.68c0,0.74,0.48,1.37,1.16,1.61
		c-0.71,0.24-1.23,0.9-1.23,1.68c0,0.71,0.43,1.32,1.05,1.6c-0.66,0.28-1.12,0.93-1.12,1.68c0,0.69,0.39,1.29,0.96,1.61
		c-0.61,0.32-1.02,0.95-1.03,1.68c0-0.72-0.42-1.35-1.03-1.68c0.58-0.31,0.96-0.92,0.96-1.61c0-0.75-0.46-1.4-1.12-1.68
		c0.62-0.28,1.05-0.89,1.05-1.6c0-0.78-0.51-1.45-1.23-1.68c0.68-0.23,1.17-0.86,1.17-1.6c0-0.84-0.62-1.53-1.43-1.68
		c0.77-0.15,1.36-0.81,1.36-1.61c0-0.9-0.75-1.63-1.67-1.63c-0.92,0-1.67,0.73-1.67,1.63c0,0.81,0.58,1.47,1.36,1.61
		c-0.81,0.14-1.43,0.84-1.43,1.68c0,0.74,0.49,1.37,1.17,1.6c-0.72,0.23-1.23,0.9-1.23,1.68c0,0.71,0.43,1.32,1.05,1.6
		c-0.66,0.28-1.12,0.93-1.12,1.68c0,0.69,0.39,1.29,0.96,1.61c-0.61,0.32-1.02,0.95-1.03,1.67c0-0.72-0.42-1.36-1.03-1.67
		c0.57-0.32,0.96-0.92,0.96-1.61c0-0.75-0.46-1.4-1.12-1.68c0.62-0.28,1.05-0.89,1.05-1.6c0-0.78-0.52-1.44-1.24-1.68
		c0.68-0.23,1.17-0.87,1.17-1.61c0-0.84-0.62-1.53-1.43-1.68c0.77-0.15,1.36-0.81,1.36-1.61c0-0.9-0.74-1.63-1.67-1.63
		c-0.92,0-1.67,0.73-1.67,1.63c0,0.81,0.59,1.47,1.36,1.61c-0.81,0.14-1.43,0.84-1.43,1.68c0,0.74,0.49,1.37,1.17,1.61
		c-0.71,0.24-1.23,0.9-1.23,1.68c0,0.71,0.43,1.32,1.05,1.6c-0.65,0.29-1.11,0.93-1.11,1.68c0,0.69,0.38,1.29,0.95,1.61
		c-0.61,0.32-1.04,0.95-1.04,1.68c0,1.05,0.87,1.9,1.95,1.9c1.07,0,1.94-0.85,1.95-1.9c0,1.04,0.87,1.9,1.94,1.9
		c1.07,0,1.94-0.85,1.94-1.9c0,1.05,0.87,1.9,1.95,1.9c1.07,0,1.94-0.86,1.94-1.9C76.65,96.38,76.24,95.75,75.62,95.43 M74.71,82.27
		c0.89,0,1.6-0.71,1.6-1.58c0-0.86-0.72-1.57-1.6-1.57c-0.89,0-1.6,0.7-1.6,1.57C73.11,81.56,73.82,82.27,74.71,82.27 M74.71,78.91
		c0.85,0,1.54-0.67,1.54-1.5c0-0.84-0.69-1.5-1.54-1.5c-0.85,0-1.53,0.67-1.53,1.5C73.18,78.24,73.86,78.91,74.71,78.91
		 M74.71,75.56c0.81,0,1.46-0.65,1.46-1.44c0-0.8-0.65-1.44-1.46-1.44c-0.8,0-1.46,0.64-1.46,1.44
		C73.25,74.92,73.9,75.56,74.71,75.56 M74.71,72.21c0.77,0,1.4-0.61,1.4-1.38c0-0.75-0.63-1.37-1.4-1.37c-0.77,0-1.4,0.61-1.4,1.37
		C73.31,71.6,73.94,72.21,74.71,72.21 M74.71,68.86c0.74,0,1.33-0.57,1.33-1.3c0-0.72-0.59-1.3-1.33-1.3c-0.73,0-1.33,0.58-1.33,1.3
		C73.38,68.28,73.97,68.86,74.71,68.86 M74.71,65.51c0.7,0,1.26-0.55,1.26-1.23c0-0.68-0.56-1.24-1.26-1.24
		c-0.69,0-1.26,0.55-1.26,1.24C73.45,64.96,74.02,65.51,74.71,65.51 M74.71,62.16c0.66,0,1.2-0.52,1.2-1.17
		c0-0.64-0.54-1.16-1.2-1.16c-0.66,0-1.19,0.52-1.19,1.16C73.52,61.64,74.05,62.16,74.71,62.16 M74.71,58.81
		c0.62,0,1.12-0.49,1.12-1.1c0-0.61-0.5-1.1-1.12-1.1c-0.62,0-1.12,0.5-1.12,1.1C73.59,58.32,74.09,58.81,74.71,58.81 M74.71,55.46
		c0.59,0,1.05-0.46,1.05-1.04c0-0.57-0.47-1.03-1.05-1.03c-0.58,0-1.06,0.46-1.06,1.03C73.65,55,74.13,55.46,74.71,55.46
		 M74.71,52.12c0.54,0,0.99-0.44,0.99-0.98c0-0.53-0.44-0.96-0.99-0.96c-0.55,0-0.99,0.44-0.99,0.96
		C73.72,51.68,74.16,52.12,74.71,52.12 M79.51,95.43c0.57-0.31,0.96-0.92,0.96-1.61c0-0.75-0.46-1.4-1.11-1.68
		c0.62-0.28,1.05-0.89,1.05-1.6c0-0.78-0.52-1.45-1.23-1.68c0.68-0.23,1.17-0.86,1.17-1.6c0-0.84-0.62-1.53-1.43-1.68
		c0.77-0.15,1.36-0.81,1.36-1.61c0-0.9-0.76-1.63-1.67-1.63c-0.92,0-1.67,0.73-1.67,1.63c0,0.81,0.59,1.47,1.36,1.61
		c-0.81,0.14-1.43,0.84-1.43,1.68c0,0.74,0.48,1.37,1.17,1.6c-0.72,0.23-1.24,0.9-1.24,1.68c0,0.71,0.43,1.32,1.05,1.6
		c-0.66,0.28-1.12,0.93-1.12,1.68c0,0.69,0.39,1.29,0.96,1.61c-0.61,0.32-1.03,0.95-1.03,1.68c0,1.05,0.87,1.9,1.95,1.9
		c1.07,0,1.94-0.86,1.94-1.9C80.54,96.38,80.12,95.75,79.51,95.43 M78.6,82.27c0.88,0,1.6-0.71,1.6-1.58c0-0.86-0.72-1.57-1.6-1.57
		c-0.89,0-1.6,0.7-1.6,1.57C77,81.56,77.71,82.27,78.6,82.27 M78.6,78.91c0.84,0,1.53-0.67,1.53-1.5c0-0.84-0.69-1.5-1.53-1.5
		c-0.85,0-1.53,0.67-1.53,1.5C77.07,78.24,77.75,78.91,78.6,78.91 M78.6,75.56c0.81,0,1.46-0.65,1.46-1.44
		c0-0.8-0.65-1.44-1.46-1.44c-0.82,0-1.46,0.64-1.46,1.44C77.14,74.92,77.78,75.56,78.6,75.56 M78.6,72.21
		c0.77,0,1.39-0.61,1.39-1.38c0-0.75-0.62-1.37-1.39-1.37c-0.77,0-1.4,0.61-1.4,1.37C77.2,71.6,77.83,72.21,78.6,72.21 M78.6,68.86
		c0.73,0,1.33-0.57,1.33-1.3c0-0.72-0.6-1.3-1.33-1.3c-0.74,0-1.33,0.58-1.33,1.3C77.27,68.28,77.86,68.86,78.6,68.86 M78.6,65.51
		c0.69,0,1.26-0.55,1.26-1.23c0-0.68-0.56-1.24-1.26-1.24c-0.7,0-1.26,0.55-1.26,1.24C77.34,64.96,77.9,65.51,78.6,65.51
		 M78.6,62.16c0.65,0,1.19-0.52,1.19-1.17c0-0.64-0.53-1.16-1.19-1.16c-0.67,0-1.19,0.52-1.19,1.16
		C77.41,61.64,77.94,62.16,78.6,62.16 M78.6,58.81c0.62,0,1.12-0.49,1.12-1.1c0-0.61-0.5-1.1-1.12-1.1c-0.63,0-1.13,0.5-1.13,1.1
		C77.47,58.32,77.97,58.81,78.6,58.81 M78.6,55.46c0.58,0,1.05-0.46,1.05-1.04c0-0.57-0.47-1.03-1.05-1.03
		c-0.59,0-1.06,0.46-1.06,1.03C77.54,55,78.01,55.46,78.6,55.46 M78.6,52.12c0.55,0,0.99-0.44,0.99-0.98c0-0.53-0.44-0.96-0.99-0.96
		c-0.55,0-0.99,0.44-0.99,0.96C77.61,51.68,78.05,52.12,78.6,52.12 M44.52,95.43c0.57-0.31,0.96-0.92,0.96-1.61
		c0-0.75-0.46-1.4-1.12-1.68c0.62-0.28,1.05-0.89,1.05-1.6c0-0.78-0.52-1.45-1.23-1.68c0.68-0.23,1.17-0.86,1.17-1.6
		c0-0.84-0.62-1.53-1.43-1.68c0.78-0.15,1.36-0.81,1.36-1.61c0-0.9-0.75-1.63-1.68-1.63c-0.92,0-1.67,0.73-1.67,1.63
		c0,0.81,0.59,1.47,1.36,1.61c-0.81,0.14-1.42,0.84-1.42,1.68c0,0.74,0.49,1.37,1.16,1.6c-0.71,0.23-1.23,0.9-1.23,1.68
		c0,0.71,0.43,1.32,1.05,1.6c-0.66,0.28-1.12,0.93-1.12,1.68c0,0.69,0.39,1.29,0.96,1.61c-0.61,0.32-1.03,0.95-1.03,1.68
		c0,1.05,0.87,1.9,1.94,1.9c1.08,0,1.95-0.86,1.95-1.9C45.55,96.38,45.12,95.75,44.52,95.43"/>
	<path class="st0" d="M39.09,109.34c-0.18-0.29-0.44-0.55-0.79-0.77c-0.35-0.22-0.93-0.51-1.75-0.86c-1.01-0.43-1.67-0.76-1.95-0.99
		c-0.24-0.22-0.35-0.46-0.35-0.72c0-0.34,0.17-0.63,0.52-0.89c0.36-0.26,0.81-0.39,1.37-0.39c0.54,0,1,0.13,1.37,0.39
		c0.35,0.24,0.7,0.58,0.86,1.1c0.01,0.05,0.05,0.08,0.11,0.08c0.06,0,0.11-0.04,0.11-0.09l0.13-1.39c-0.29-0.17-0.7-0.36-0.98-0.44
		c-0.38-0.1-0.83-0.15-1.34-0.15c-0.94,0-1.69,0.2-2.25,0.61c-0.56,0.41-0.84,0.91-0.84,1.49c0,0.33,0.08,0.61,0.24,0.86
		c0.22,0.32,0.53,0.62,0.96,0.9c0.26,0.17,0.81,0.44,1.66,0.81c0.86,0.37,1.44,0.72,1.72,0.99c0.27,0.27,0.41,0.57,0.41,0.89
		c0,0.23-0.09,0.48-0.27,0.73c-0.18,0.25-0.43,0.45-0.76,0.58c-0.32,0.13-0.69,0.2-1.07,0.2c-0.63,0-1.2-0.2-1.71-0.6
		c-0.49-0.39-0.81-0.74-0.88-1.23c-0.01-0.03-0.01-0.07-0.01-0.1c0-0.08-0.07-0.14-0.17-0.14c-0.09,0-0.17,0.07-0.17,0.14
		c-0.01,0.06-0.15,1.66-0.15,1.66c0,0.08,0.04,0.15,0.12,0.22c0.08,0.07,0.3,0.15,0.68,0.26c0.63,0.18,1.29,0.27,1.98,0.27
		c0.78,0,1.42-0.1,1.9-0.3c0.48-0.2,0.86-0.5,1.14-0.9c0.28-0.4,0.42-0.83,0.42-1.28C39.36,109.96,39.27,109.64,39.09,109.34"/>
	<path class="st0" d="M60.99,107.89c1.01-0.33,1.68-0.96,1.68-1.67c0-1.05-1.47-1.92-3.29-1.92l-0.02,0c-0.59-0.01-1.35,0-1.65,0.01
		c-0.75,0.02-1.24,0.06-1.84,0.11l-0.52,0.02l-0.01,0c-0.1-0.01-0.18,0.05-0.19,0.13c-0.01,0.08,0.06,0.15,0.16,0.16l0.9,0.17v0
		c0.26,0.05,0.25,0.21,0.24,0.42v0v6.52l0,0.01c0.01,0.21-0.17,0.4-0.42,0.42v0l-0.71,0.17c-0.1,0.01-0.16,0.08-0.15,0.16
		c0.01,0.08,0.09,0.14,0.19,0.13h0.01h4.48h0.01c2.06,0,3.73-1.11,3.73-2.48C63.57,109.15,62.49,108.22,60.99,107.89 M59.07,104.7
		c0.56,0,1.03,0.09,1.4,0.28c0.07,0.03,1.53,0.69,0.58,2.11c-0.02,0.04-0.55,0.88-2.33,0.88c-0.3,0-0.62-0.02-0.96-0.07l0-3.04
		C57.93,104.81,58.47,104.7,59.07,104.7 M61.78,111.47c0,0.01-0.59,0.78-2.21,0.82c0,0-0.04,0-0.11,0c-0.38,0-1.61-0.06-1.7-0.9
		l0-2.91c0.19-0.03,0.72-0.09,1.33-0.09c0.91,0,1.63,0.13,2.14,0.38c0,0,0.46,0.26,0.76,0.72C62.39,110.1,62.32,110.76,61.78,111.47
		"/>
	<path class="st0" d="M77.03,112.41L77.03,112.41l-0.71-0.17v0c-0.25-0.02-0.44-0.21-0.42-0.42v0v-6.6v0
		c-0.01-0.21,0.17-0.4,0.42-0.42l0.71-0.17h0c0.09-0.01,0.16-0.08,0.15-0.16c-0.01-0.08-0.1-0.14-0.19-0.13h-0.01H75.9h-1.31h-1.1
		h-0.01c-0.1-0.01-0.18,0.05-0.19,0.13c-0.01,0.08,0.07,0.15,0.16,0.16v0l0.7,0.17c0.25,0.02,0.44,0.22,0.43,0.42v0v3.06h-5.42v-3.1
		c0.02-0.19,0.19-0.36,0.43-0.38l0.71-0.17c0.09-0.01,0.16-0.08,0.15-0.16c-0.01-0.08-0.1-0.14-0.19-0.13h0l-1.09,0v0h-1.31h-1.09
		h-0.01c-0.1-0.01-0.18,0.05-0.19,0.13c-0.01,0.08,0.06,0.15,0.15,0.16v0l0.71,0.17c0.22,0.02,0.39,0.17,0.42,0.35v6.76
		c-0.03,0.18-0.2,0.33-0.42,0.35v0l-0.71,0.17c-0.1,0.01-0.17,0.08-0.15,0.16c0.01,0.08,0.1,0.14,0.19,0.13h0.01h1.09h1.31h1.09h0
		c0.1,0,0.18-0.05,0.19-0.13c0.01-0.08-0.06-0.15-0.15-0.16l-0.71-0.17v0c-0.24-0.02-0.41-0.19-0.43-0.38v-3.1h5.42v3.06v0
		c0.01,0.21-0.17,0.4-0.43,0.42v0l-0.7,0.17c-0.1,0.01-0.17,0.08-0.16,0.16c0.01,0.08,0.1,0.14,0.19,0.13h0.01h1.1h1.31v0l1.08,0
		h0.01c0.1,0,0.18-0.05,0.19-0.13C77.19,112.49,77.12,112.42,77.03,112.41"/>
	<path class="st0" d="M88.92,112.42L88.92,112.42l-0.51-0.13h0c-0.26-0.04-0.46-0.2-0.55-0.4l-0.01,0l-3.46-7.55h-0.35l-3.46,7.55v0
		c-0.08,0.2-0.29,0.35-0.55,0.4h-0.01l-0.51,0.13v0c-0.1,0.01-0.17,0.08-0.15,0.16c0.01,0.08,0.09,0.14,0.19,0.13h2.59h0
		c0.1,0.01,0.19-0.05,0.2-0.13c0.01-0.08-0.06-0.15-0.15-0.16v0l-0.64-0.15c-0.11-0.02-0.22-0.08-0.27-0.16
		c-0.05-0.08-0.05-0.18,0-0.29l0.01,0v0l1.12-2.45h3.13l1.08,2.34v0c0.16,0.3-0.07,0.51-0.32,0.55l-0.71,0.17v0
		c-0.09,0.01-0.16,0.08-0.15,0.16c0.01,0.08,0.1,0.14,0.2,0.13h0h3.25c0.1,0.01,0.18-0.05,0.19-0.13
		C89.09,112.5,89.02,112.42,88.92,112.42 M82.66,108.86l1.33-2.92l1.34,2.92H82.66z"/>
	<path class="st0" d="M52.47,108.41c0-0.51-0.09-0.99-0.28-1.47c-0.14-0.36-0.35-0.7-0.62-1.01c-0.4-0.45-0.8-0.79-1.19-1.01
		c-0.4-0.22-0.84-0.39-1.33-0.51c-0.49-0.12-0.98-0.18-1.49-0.18c-0.07,0-0.14,0-0.21,0c-0.07,0-0.13,0-0.2,0
		c-0.51,0-1.01,0.06-1.5,0.18c-0.49,0.12-0.93,0.29-1.32,0.51c-0.4,0.22-0.8,0.55-1.19,1.01c-0.28,0.31-0.49,0.65-0.63,1.01
		c-0.19,0.47-0.27,0.96-0.27,1.47v0.1v0.1c0,0.5,0.09,0.99,0.27,1.46c0.14,0.36,0.35,0.7,0.63,1.01c0.39,0.45,0.79,0.79,1.19,1.01
		c0.4,0.22,0.84,0.39,1.32,0.51c0.49,0.12,0.99,0.18,1.5,0.18c0.07,0,0.14,0,0.2,0c0.07,0,0.14,0,0.21,0c0.51,0,1.01-0.06,1.49-0.18
		c0.49-0.12,0.93-0.29,1.33-0.51c0.4-0.22,0.79-0.55,1.19-1.01c0.28-0.31,0.49-0.65,0.62-1.01c0.18-0.47,0.28-0.96,0.28-1.46v-0.1
		V108.41z M51.14,108.53c0,0.57-0.1,1.14-0.29,1.69c-0.15,0.42-0.39,0.8-0.73,1.14c-0.34,0.33-0.75,0.59-1.23,0.77
		c-0.48,0.18-0.99,0.27-1.53,0.27h-0.01h-0.01c-0.54,0-1.06-0.09-1.54-0.27c-0.48-0.18-0.89-0.44-1.23-0.77
		c-0.34-0.33-0.58-0.71-0.73-1.14c-0.2-0.56-0.29-1.12-0.29-1.69v-0.01v-0.02c0-0.57,0.1-1.13,0.29-1.69
		c0.15-0.42,0.4-0.8,0.73-1.13c0.34-0.33,0.75-0.59,1.23-0.77c0.48-0.18,0.99-0.27,1.54-0.27h0.01h0.01c0.54,0,1.05,0.09,1.53,0.27
		c0.48,0.18,0.89,0.44,1.23,0.77c0.34,0.33,0.58,0.71,0.73,1.13c0.19,0.56,0.29,1.12,0.29,1.69v0.02V108.53z"/>
	<g>
		<path class="st4" d="M179.57,136.59c-3.79-9.02-4.31-13.6-12.16-13.6h-4.18v15.3c0,5.36,0.59,6.86,2.61,7.45v0.85h-10.59v-0.85
			c2.03-0.59,2.61-2.09,2.61-7.45v-29.15c0-5.36-0.59-6.86-2.61-7.45v-0.85h12.88c13.27,0,17.19,4.38,17.19,10.2
			c0,6.14-4.45,10.78-12.94,11.77c8.04,1.05,9.28,5.03,12.42,13.07c3.14,7.84,4.44,10,6.67,10c0.39,0,0.72,0,1.05-0.06v0.78
			c-0.98,0.33-2.68,0.46-3.99,0.46C183.5,147.05,182.45,143.39,179.57,136.59 M168.72,122.01c7.52,0,11.05-3.92,11.05-9.48
			c0-5.82-3.79-10.72-13.47-10.72c-0.98,0-2.03,0.06-3.07,0.13v20.07H168.72z"/>
		<path class="st4" d="M250.3,145.74c1.96-0.59,2.61-2.09,2.55-7.45V126l-9.87-17.91c-2.55-4.64-4.45-5.82-5.82-6.41v-0.85h10.33
			v0.85c-1.96,0.59-1.18,1.76,1.44,6.41l9.09,16.21l9.15-16.21c2.22-3.99,2.29-5.95-0.2-6.41v-0.85h7.78v0.85
			c-1.76,0.59-3.79,1.76-6.41,6.41l-10,17.78v12.42c0,5.36,0.59,6.86,2.61,7.45v0.85H250.3V145.74z"/>
		<path class="st4" d="M268.21,145.74c1.83-0.59,3.47-1.9,5.49-6.86l12.88-31.9c0.46-1.18,0.39-2.03-0.13-3.07l-0.59-1.37l4.9-2.22
			l16.08,38.63c2.03,4.9,3.6,6.21,4.97,6.8v0.85h-10.13v-0.85c2.03-0.59,1.5-1.9-0.59-6.8l-3.99-9.61h-18.43l-3.86,9.54
			c-1.7,4.25-1.44,6.41,0.78,6.86v0.85h-7.39V145.74z M296.71,128.36l-8.96-21.51l-8.69,21.51H296.71z"/>
		<path class="st4" d="M314.55,145.74c1.96-0.59,2.61-2.09,2.61-7.45v-29.15c0-5.36-0.65-6.86-2.61-7.45v-0.85h10.59v0.85
			c-2.03,0.59-2.61,2.09-2.61,7.45v33.47c0,1.9,1.05,2.94,2.94,2.94h7.78c6.28,0,9.15-1.57,11.44-6.47l0.72,0.13l-0.46,7.39h-30.4
			V145.74z"/>
		<path class="st4" d="M363.83,124.63c0-13.92,10.79-24.25,26.15-24.25c5.62,0,12.16,1.63,14.71,3.27l0.26,7.78l-0.65,0.13
			c-2.55-5.95-8.76-9.94-16.54-9.94c-10.39,0-18.43,6.93-18.43,20.26c-0.06,12.29,7.39,24.05,20.98,24.05
			c7.06,0,12.55-3.73,15.1-10.79l0.72,0.07l-1.05,8.5c-3.07,1.7-9.28,3.53-16.6,3.53C373.44,147.25,363.83,138.88,363.83,124.63"/>
		<path class="st4" d="M436.52,136.59c-3.79-9.02-4.31-13.6-12.16-13.6h-4.18v15.3c0,5.36,0.59,6.86,2.61,7.45v0.85H412.2v-0.85
			c2.03-0.59,2.61-2.09,2.61-7.45v-29.15c0-5.36-0.59-6.86-2.61-7.45v-0.85h12.88c13.27,0,17.19,4.38,17.19,10.2
			c0,6.14-4.45,10.78-12.94,11.77c8.04,1.05,9.28,5.03,12.42,13.07c3.14,7.84,4.44,10,6.67,10c0.39,0,0.72,0,1.05-0.06v0.78
			c-0.98,0.33-2.68,0.46-3.99,0.46C440.44,147.05,439.4,143.39,436.52,136.59 M425.67,122.01c7.52,0,11.05-3.92,11.05-9.48
			c0-5.82-3.79-10.72-13.47-10.72c-0.98,0-2.03,0.06-3.07,0.13v20.07H425.67z"/>
		<path class="st4" d="M452.21,145.74c1.96-0.59,2.61-2.09,2.61-7.45v-29.15c0-5.36-0.65-6.86-2.61-7.45v-0.85h30.39l0.72,8.5
			l-0.72,0.2c-2.29-5.75-6.14-7.71-12.81-7.71h-9.61v19.8h8.37c7.45,0,9.35-1.5,10.13-4.44h0.78v9.87h-0.78
			c-0.78-2.94-2.68-4.45-10.13-4.45h-8.37v20.07c0,1.9,1.05,2.94,2.94,2.94h8.5c6.28,0,10.26-1.76,12.62-7.84l0.72,0.13l-0.52,8.69
			h-32.23V145.74z"/>
		<path class="st4" d="M490.31,142.61l-0.33-9.09l0.72-0.13c2.55,6.86,7.52,12.68,16.6,12.68c5.23,0,9.74-3.4,9.74-8.69
			c0-6.54-8.04-9.54-13.53-11.76c-7.71-3.07-12.62-5.82-12.62-12.75c0-7.65,6.34-12.49,15.95-12.49c5.95,0,10.2,1.63,12.75,3.01
			l0.26,7.58l-0.65,0.2c-2.42-5.69-6.99-9.74-14.44-9.74c-5.29,0-9.81,3.07-9.81,8.63c0,6.15,6.73,8.63,12.29,10.92
			c7.26,2.87,14.05,5.75,14.05,13.14c0,8.17-7.58,13.14-15.3,13.14C499.14,147.25,493.39,144.83,490.31,142.61"/>
		<path class="st4" d="M536.4,145.74c2.03-0.59,2.61-2.09,2.61-7.45v-36.41h-3.2c-5.88,0-8.43,1.57-10.65,6.28l-0.72-0.13l0.39-7.19
			h33.66l0.39,7.19l-0.72,0.13c-2.22-4.71-4.77-6.28-10.65-6.28h-3.07v36.41c0,5.36,0.59,6.86,2.61,7.45v0.85H536.4V145.74z"/>
		<path class="st4" d="M215.02,100.6c-13.03,0-23.59,10.56-23.59,23.59c0,13.03,10.56,23.59,23.59,23.59
			c13.03,0,23.59-10.56,23.59-23.59C238.62,111.17,228.05,100.6,215.02,100.6 M215.02,146.85c-9.61,0-17.4-10.14-17.4-22.66
			c0-12.51,7.79-22.66,17.4-22.66c9.61,0,17.4,10.14,17.4,22.66C232.43,136.71,224.64,146.85,215.02,146.85"/>
		<path class="st5" d="M277.7,58.72c-0.63-1.02-1.59-1.98-2.86-2.76c-1.26-0.82-3.36-1.84-6.31-3.09c-3.64-1.57-6-2.75-7.03-3.55
			c-0.84-0.78-1.24-1.69-1.24-2.6c0-1.23,0.6-2.27,1.88-3.23c1.27-0.93,2.92-1.4,4.94-1.4c1.92,0,3.58,0.47,4.93,1.4
			c1.25,0.88,2.52,2.11,3.12,3.99c0.02,0.17,0.17,0.3,0.38,0.3c0.22,0,0.37-0.16,0.37-0.33l0.47-5.01c-1.05-0.63-2.5-1.29-3.52-1.58
			c-1.35-0.37-2.95-0.5-4.84-0.5c-3.38,0-6.07,0.7-8.12,2.18c-1.98,1.47-3,3.27-3,5.4c0,1.14,0.25,2.19,0.83,3.07
			c0.79,1.13,1.92,2.21,3.49,3.25c0.93,0.6,2.91,1.6,5.97,2.91c3.12,1.35,5.18,2.57,6.19,3.58c0.99,0.94,1.52,2.03,1.52,3.22
			c0,0.82-0.35,1.72-1.01,2.63c-0.63,0.9-1.58,1.6-2.73,2.07c-1.15,0.48-2.44,0.75-3.85,0.75c-2.28,0-4.33-0.75-6.14-2.15
			c-1.81-1.4-2.94-2.67-3.2-4.43c0-0.15-0.02-0.25-0.02-0.37c0-0.3-0.29-0.53-0.6-0.53c-0.35,0-0.65,0.22-0.65,0.53
			c-0.04,0.2-0.53,5.98-0.53,5.98c0,0.27,0.16,0.54,0.42,0.76c0.31,0.26,1.12,0.57,2.47,0.98c2.29,0.64,4.63,0.96,7.1,0.96
			c2.86,0,5.14-0.35,6.88-1.08c1.73-0.71,3.07-1.78,4.1-3.24c1.02-1.43,1.53-2.95,1.53-4.59C278.67,60.97,278.33,59.79,277.7,58.72"
			/>
		<path class="st5" d="M356.7,53.51c3.6-1.17,6.04-3.4,6.04-6c0-3.83-5.31-6.9-11.82-6.9l-0.06-0.01c-2.14-0.03-4.91,0.01-5.99,0.05
			c-2.69,0.1-4.45,0.21-6.63,0.38l-1.86,0.08l-0.03,0c-0.33-0.03-0.63,0.2-0.69,0.46c-0.02,0.3,0.23,0.55,0.59,0.58l3.19,0.6v0
			c0.95,0.2,0.93,0.77,0.87,1.51v0.01V67.8c0.06,0.73-0.64,1.4-1.53,1.5l-0.01,0.01l-2.53,0.62c-0.38,0.03-0.61,0.28-0.59,0.58
			c0.06,0.26,0.37,0.49,0.69,0.46h0.03h16.15h0.03c7.42,0,13.41-4,13.41-8.93C365.96,58.06,362.08,54.7,356.7,53.51 M349.78,42.03
			c2,0,3.67,0.33,5,0.97c0.25,0.12,5.51,2.5,2.09,7.59c-0.1,0.14-1.97,3.19-8.38,3.19c-1.08,0-2.25-0.08-3.47-0.28l-0.01-10.94
			C345.65,42.41,347.57,42.03,349.78,42.03 M359.56,66.42c-0.02,0.01-2.13,2.79-8,2.94c0,0-0.14,0.01-0.38,0.01
			c-1.37,0-5.83-0.24-6.15-3.25l0.01-10.52c0.67-0.07,2.58-0.31,4.81-0.31c3.26,0,5.84,0.45,7.71,1.37c0.01,0,1.68,0.92,2.74,2.57
			C361.73,61.49,361.5,63.86,359.56,66.42"/>
		<path class="st5" d="M414.51,69.8L414.51,69.8l-2.54-0.6h-0.01c-0.88-0.06-1.57-0.75-1.52-1.52v-0.01v-23.8v-0.01
			c-0.05-0.73,0.64-1.44,1.52-1.51l0.01,0l2.54-0.6c0.36-0.03,0.58-0.29,0.55-0.58c-0.05-0.3-0.35-0.5-0.69-0.46l-0.03,0h-3.91
			h-4.74h-3.93h-0.03c-0.34-0.04-0.64,0.16-0.67,0.46c-0.06,0.29,0.2,0.54,0.56,0.58l2.53,0.6c0.91,0.08,1.59,0.78,1.54,1.52v0.01
			v11h-19.52V43.7c0.04-0.69,0.68-1.29,1.53-1.35l0,0l2.54-0.6h0c0.33-0.03,0.59-0.29,0.56-0.58c-0.03-0.3-0.35-0.5-0.7-0.46
			l-0.03,0h-3.92h-4.74v0h-3.91l-0.03,0c-0.34-0.04-0.66,0.16-0.69,0.47c-0.03,0.29,0.21,0.54,0.55,0.58v0.01l2.58,0.59
			c0.79,0.07,1.39,0.61,1.51,1.26v24.34c-0.11,0.65-0.72,1.19-1.51,1.26h0l-2.58,0.6v0.01c-0.34,0.03-0.58,0.28-0.55,0.57
			c0.03,0.31,0.36,0.5,0.69,0.46h0.03h3.91h4.74h3.92h0.03c0.35,0.04,0.66-0.16,0.7-0.46c0.03-0.3-0.23-0.55-0.56-0.58v0l-2.55-0.61
			h0c-0.85-0.06-1.5-0.67-1.53-1.34V56.66h19.52v11.01v0.01c0.04,0.77-0.64,1.45-1.54,1.52l-2.53,0.6v0.01
			c-0.35,0.03-0.61,0.28-0.56,0.58c0.03,0.3,0.33,0.5,0.67,0.46h0.03h3.93v0.01l4.74-0.01v-0.01l3.91,0.01h0.03
			c0.34,0.04,0.65-0.16,0.69-0.46C415.09,70.09,414.87,69.83,414.51,69.8"/>
		<path class="st5" d="M457.98,70.35V70.3c-0.02-0.23-0.24-0.46-0.57-0.49l-1.81-0.45l-0.01-0.01c-0.94-0.17-1.7-0.72-2-1.45l0-0.01
			l-12.49-27.2h-1.23l-12.49,27.2v0.01c-0.31,0.73-1.06,1.28-1.97,1.45l-0.03,0.01l-1.83,0.45c-0.35,0.03-0.56,0.3-0.55,0.59
			c0.03,0.3,0.35,0.48,0.68,0.44H433c0.36,0.04,0.7-0.14,0.73-0.44c0.03-0.3-0.23-0.55-0.56-0.59l-2.29-0.55
			c-0.41-0.06-0.78-0.28-0.96-0.58c-0.2-0.27-0.2-0.64,0.02-1.03v-0.02v-0.02l4.05-8.81h11.29l3.85,8.46l0.01,0.01
			c0.58,1.06-0.24,1.82-1.15,1.94l-2.58,0.61c-0.32,0.04-0.58,0.3-0.55,0.59c0.03,0.3,0.37,0.48,0.74,0.44h-0.01h11.71
			c0.35,0.04,0.65-0.14,0.69-0.44C457.97,70.38,457.98,70.37,457.98,70.35 M434.81,57.02l4.84-10.54l4.81,10.54H434.81z"/>
		<path class="st5" d="M325.93,55.41c0-1.84-0.34-3.6-1.01-5.29c-0.51-1.3-1.26-2.53-2.24-3.67c-1.43-1.64-2.87-2.82-4.3-3.59
			c-1.44-0.81-3.03-1.4-4.79-1.86c-1.75-0.44-3.55-0.63-5.4-0.63h-0.72h-0.73c-1.85,0-3.63,0.19-5.4,0.63
			c-1.75,0.46-3.35,1.05-4.79,1.86c-1.44,0.77-2.86,1.95-4.31,3.59c-0.98,1.13-1.73,2.37-2.24,3.67c-0.66,1.69-1.02,3.45-1.02,5.29
			c0,0.13,0.01,0.23,0.03,0.36c-0.02,0.13-0.03,0.23-0.03,0.36c0,1.84,0.36,3.6,1.02,5.29c0.51,1.29,1.26,2.54,2.24,3.67
			c1.46,1.64,2.88,2.82,4.31,3.59c1.44,0.81,3.04,1.4,4.79,1.86c1.77,0.44,3.54,0.63,5.4,0.63h0.73h0.72c1.85,0,3.64-0.19,5.4-0.63
			c1.76-0.46,3.35-1.05,4.79-1.86c1.43-0.77,2.87-1.95,4.3-3.59c0.98-1.13,1.73-2.38,2.24-3.67c0.67-1.69,1.01-3.45,1.01-5.29
			c0-0.13-0.03-0.23-0.03-0.36C325.91,55.64,325.93,55.54,325.93,55.41 M321.15,55.85c0,2.03-0.34,4.07-1.05,6.07
			c-0.55,1.54-1.41,2.88-2.64,4.08c-1.23,1.22-2.7,2.13-4.45,2.81c-1.71,0.67-3.56,0.96-5.52,0.96h-0.03h-0.02
			c-1.97,0-3.8-0.29-5.55-0.96c-1.72-0.68-3.2-1.59-4.43-2.81c-1.22-1.2-2.11-2.54-2.65-4.08c-0.7-2-1.05-4.05-1.05-6.07v-0.07V55.7
			c0-2.03,0.35-4.07,1.05-6.08c0.53-1.54,1.42-2.88,2.65-4.08c1.22-1.22,2.71-2.13,4.43-2.81c1.75-0.67,3.58-0.96,5.55-0.96h0.02
			h0.02c1.96,0,3.81,0.29,5.52,0.96c1.75,0.68,3.22,1.59,4.45,2.81c1.23,1.2,2.09,2.54,2.64,4.08c0.7,2,1.05,4.05,1.05,6.08v0.08
			V55.85z"/>
	</g>
	<line class="st6" x1="128.88" y1="31.55" x2="128.88" y2="147.79"/>
</g>
</svg>
